<?xml version="1.0" standalone="no"?><!DOCTYPE svg PUBLIC "-//W3C//DTD SVG 1.1//EN" "http://www.w3.org/Graphics/SVG/1.1/DTD/svg11.dtd"><svg t="1529827457408" class="icon" style="" viewBox="0 0 1024 1024" version="1.1" xmlns="http://www.w3.org/2000/svg" p-id="3828" xmlns:xlink="http://www.w3.org/1999/xlink" width="200" height="200"><defs><style type="text/css"></style></defs><path d="M947.2 179.2H76.8c-15.36 0-25.6-10.24-25.6-25.6 0-12.8 10.24-25.6 25.6-25.6h870.4c12.8 0 25.6 10.24 25.6 25.6s-12.8 25.6-25.6 25.6z m0 358.4H76.8c-12.8 0-25.6-10.24-25.6-25.6 0-12.8 10.24-25.6 25.6-25.6h870.4c12.8 0 25.6 10.24 25.6 25.6s-12.8 25.6-25.6 25.6z m0 358.4H76.8c-12.8 0-25.6-12.8-25.6-25.6s10.24-25.6 25.6-25.6h870.4c12.8 0 25.6 12.8 25.6 25.6S960 896 947.2 896z" fill="#ffffff" p-id="3829"></path></svg>